<?xml version="1.0" encoding="UTF-8" standalone="no"?>
<svg width="19px" height="17px" viewBox="0 0 19 17" version="1.1" xmlns="http://www.w3.org/2000/svg" xmlns:xlink="http://www.w3.org/1999/xlink">
    <!-- Generator: Sketch 42 (36781) - http://www.bohemiancoding.com/sketch -->
    <title>ico_kiwi</title>
    <desc>Created with Sketch.</desc>
    <defs></defs>
    <g id="Page-1" stroke="none" stroke-width="1" fill="none" fill-rule="evenodd">
        <g id="main-categories" transform="translate(-24.000000, -184.000000)" fill-rule="nonzero" fill="#B8B8B8">
            <g id="ico_kiwi" transform="translate(24.000000, 184.000000)">
                <path d="M18.6879433,7.48120567 C18.651773,7.7464539 18.6216312,8.01170213 18.585461,8.27092199 C18.3744681,9.89255319 17.3797872,10.7907801 15.8606383,11.2007092 C15.0950355,11.4056738 14.3113475,11.4237589 13.5276596,11.3333333 C13.4734043,11.327305 13.3769504,11.3574468 13.3528369,11.3996454 C12.6776596,12.7379433 11.6829787,13.829078 10.6219858,14.8659574 C9.86843972,15.6074468 8.98829787,16.1741135 8.00567376,16.5599291 C5.91382979,17.3858156 4.01489362,16.9578014 2.46560284,15.3241135 C1.66985816,14.4801418 1.07304965,13.5095745 0.807801418,12.3702128 C0.464184397,10.8812057 0.831914894,9.53687943 1.71808511,8.3251773 C2.52588652,7.21595745 3.59893617,6.40815603 4.82269504,5.81134752 C5.41347518,5.52198582 6.0464539,5.31099291 6.66134752,5.06985816 C6.73368794,5.03971631 6.78794326,5.02163121 6.80602837,4.91914894 C6.87234043,4.40070922 6.95673759,3.88829787 7.03510638,3.36985816 C7.04113475,3.34574468 7.03510638,3.32163121 7.04113475,3.3035461 C6.64929078,3.46631206 6.26347518,3.62907801 5.87163121,3.77978723 C5.19042553,4.03900709 4.47907801,4.14751773 3.76170213,4.25 C2.80921986,4.38865248 1.91099291,4.70212766 1.04893617,5.11808511 C0.868085106,5.20248227 0.681205674,5.28687943 0.488297872,5.33510638 C0.174822695,5.41950355 -0.0120567376,5.25673759 0.0120567376,4.93723404 C0.0361702128,4.59964539 0.180851064,4.30425532 0.373758865,4.03297872 C0.729432624,3.53262411 1.19964539,3.16489362 1.71205674,2.83333333 C2.55,2.29078014 3.46631206,1.91702128 4.41879433,1.63971631 C4.47304965,1.62163121 4.5212766,1.60957447 4.57553191,1.59751773 C4.58758865,1.59148936 4.59361702,1.58546099 4.65390071,1.54326241 C4.41276596,1.5070922 4.20780142,1.47092199 4.00886525,1.44680851 C3.76170213,1.41666667 3.51453901,1.40460993 3.26737589,1.36843972 C3.17092199,1.35638298 3.07446809,1.32624113 2.99609929,1.27801418 C2.83333333,1.18758865 2.79113475,1.0248227 2.88758865,0.856028369 C3.0141844,0.620921986 3.21914894,0.470212766 3.45425532,0.355673759 C3.9606383,0.108510638 4.50921986,0.0361702128 5.06985816,0.030141844 C6.24539007,0.0120567376 7.37269504,0.253191489 8.45780142,0.705319149 C8.59042553,0.759574468 8.68687943,0.753546099 8.80744681,0.675177305 C9.45248227,0.259219858 10.1758865,0.0723404255 10.9294326,0.0361702128 C12.5812057,-0.0482269504 14.1304965,0.337588652 15.5230496,1.20567376 C17.0301418,2.14609929 17.9886525,3.52659574 18.4347518,5.25070922 C18.5553191,5.72092199 18.5914894,6.20921986 18.6698582,6.68546099 C18.6819149,6.75177305 18.6939716,6.81808511 18.7060284,6.87836879 C18.6879433,7.0893617 18.6879433,7.2822695 18.6879433,7.48120567 Z M8.6929078,5.31099291 C8.54219858,5.32304965 8.25886525,5.32907801 7.97553191,5.3712766 C6.64929078,5.5641844 5.43758865,6.05248227 4.30425532,6.75780142 C3.36382979,7.34858156 2.52588652,8.05390071 1.92304965,9.00638298 C1.35638298,9.89858156 1.09716312,10.8631206 1.29609929,11.9120567 C1.59148936,13.4432624 2.39929078,14.679078 3.62304965,15.6255319 C4.45496454,16.2705674 5.41347518,16.5297872 6.46843972,16.4031915 C7.39680851,16.2946809 8.2106383,15.9088652 8.99432624,15.4205674 C10.0673759,14.7514184 10.8992908,13.8170213 11.7010638,12.864539 C12.2315603,12.2375887 12.701773,11.5624113 12.9851064,10.7787234 C13.1599291,10.2964539 13.2624113,9.80212766 13.2021277,9.28368794 C13.1177305,8.53617021 12.8223404,7.86099291 12.4304965,7.24007092 C11.6046099,5.91985816 10.3748227,5.31099291 8.6929078,5.31099291 Z M13.6542553,10.772695 C14.4379433,10.8691489 15.2336879,10.8570922 16.0113475,10.5978723 C16.951773,10.2904255 17.6570922,9.72375887 17.9102837,8.72907801 C18.3684397,6.91453901 18.0971631,5.1964539 17.114539,3.59893617 C15.6134752,1.17553191 12.5088652,0.319503546 10.477305,0.65106383 C9.55496454,0.80177305 8.78333333,1.2177305 8.26489362,2.01950355 C7.89716312,2.59219858 7.61985816,3.21914894 7.49326241,3.89432624 C7.43297872,4.20780142 7.40283688,4.52730496 7.3606383,4.85283688 L7.54751773,4.85283688 C8.04184397,4.81666667 8.53617021,4.75638298 9.03652482,4.75638298 C9.74787234,4.75035461 10.429078,4.9251773 11.0741135,5.24468085 C12.1712766,5.78723404 12.9067376,6.66134752 13.370922,7.77659574 C13.6241135,8.37340426 13.829078,8.9822695 13.7929078,9.6393617 C13.7687943,10.0070922 13.7024823,10.3748227 13.6542553,10.772695 Z M7.71631206,1.75425532 C7.27624113,1.77836879 6.86028369,1.78439716 6.45035461,1.83262411 C5.23865248,1.95921986 4.06312057,2.26666667 2.95390071,2.77304965 C2.24255319,3.09858156 1.56737589,3.47836879 1.03687943,4.06914894 C0.892198582,4.23191489 0.783687943,4.41879433 0.632978723,4.62978723 C0.705319149,4.62375887 0.717375887,4.62978723 0.729432624,4.62375887 C1.69397163,4.03900709 2.77304965,3.80390071 3.87021277,3.65921986 C5.07588652,3.50248227 6.19716312,3.13475177 7.24007092,2.51985816 C7.28829787,2.48971631 7.34858156,2.4535461 7.3787234,2.40531915 C7.49326241,2.20035461 7.59574468,1.9893617 7.71631206,1.75425532 Z M3.84007092,0.74751773 C3.84007092,0.765602837 3.83404255,0.783687943 3.83404255,0.80177305 C3.87624113,0.807801418 3.91241135,0.825886525 3.95460993,0.825886525 C4.53333333,0.868085106 5.08794326,1.03687943 5.63652482,1.2177305 C5.7751773,1.25992908 5.93191489,1.27801418 6.08262411,1.27198582 C6.64326241,1.24787234 7.20992908,1.20567376 7.77056738,1.16950355 C7.81879433,1.16347518 7.86702128,1.15744681 7.91524823,1.15744681 C6.57695035,0.65106383 5.23865248,0.343617021 3.84007092,0.74751773 Z" id="Shape"></path>
                <path d="M6.53475177,13.9978723 C6.54680851,14.3234043 6.45035461,14.6730496 6.21524823,14.9684397 C5.85957447,15.414539 5.38333333,15.5652482 4.83475177,15.4085106 C4.08120567,15.1914894 3.53262411,14.6911348 3.07446809,14.0882979 C2.65248227,13.5397163 2.36312057,12.9308511 2.28475177,12.2375887 C2.15815603,11.1163121 3.09255319,10.4652482 4.11737589,10.7606383 C5.01560284,11.0198582 5.63049645,11.6287234 6.08865248,12.4124113 C6.36595745,12.8886525 6.54078014,13.3950355 6.53475177,13.9978723 Z M2.84539007,12.1049645 L2.84539007,12.2858156 C2.84539007,12.3159574 2.85744681,12.3460993 2.86347518,12.3762411 C3.02021277,13.0755319 3.41808511,13.6301418 3.89432624,14.1485816 C4.15957447,14.4379433 4.45496454,14.6911348 4.8287234,14.8297872 C5.2929078,15.0046099 5.68475177,14.841844 5.89574468,14.3897163 C6.02836879,14.106383 6.02234043,13.8170213 5.93794326,13.5216312 C5.73900709,12.7921986 5.32907801,12.2014184 4.75638298,11.7312057 C4.52730496,11.5443262 4.25,11.3815603 3.96666667,11.3031915 C3.32163121,11.1163121 2.79113475,11.5503546 2.84539007,12.1049645 Z" id="Shape"></path>
            </g>
        </g>
    </g>
</svg>