<?xml version="1.0" encoding="UTF-8" standalone="no"?>
<svg width="17px" height="16px" viewBox="0 0 17 16" version="1.1" xmlns="http://www.w3.org/2000/svg" xmlns:xlink="http://www.w3.org/1999/xlink">
    <!-- Generator: Sketch 42 (36781) - http://www.bohemiancoding.com/sketch -->
    <title>ico_letuce</title>
    <desc>Created with Sketch.</desc>
    <defs></defs>
    <g id="Page-1" stroke="none" stroke-width="1" fill="none" fill-rule="evenodd">
        <g id="main-categories" transform="translate(-25.000000, -138.000000)" fill-rule="nonzero" fill="#B8B8B8">
            <path d="M41.4578778,145.526244 L41.4578778,146.426565 C41.4270096,146.663221 41.3961415,146.905022 41.3601286,147.141678 C41.066881,149.014347 40.2231511,150.604057 38.7980707,151.854218 C36.822508,153.582835 34.5125402,154.231067 31.9247588,153.814347 C30.6180064,153.603414 29.4347267,153.0838 28.385209,152.270938 C26.6411576,150.923028 25.5813505,149.163543 25.2778135,146.971903 C25.1749196,146.215633 25.185209,145.454218 25.3138264,144.697948 C25.4012862,144.198913 25.6379421,143.761614 25.8488746,143.30888 C25.9517685,143.082514 26.0598071,142.851003 26.1369775,142.614347 C26.2810289,142.141035 26.1524116,141.780906 25.7562701,141.487659 C25.5813505,141.359041 25.3961415,141.256147 25.2212219,141.12753 C25.1389068,141.070938 25.0720257,140.993768 25,140.921742 L25,140.762257 C25.0411576,140.721099 25.0771704,140.674797 25.1234727,140.638784 C25.5144695,140.319813 25.926045,140.03171 26.3890675,139.820778 C26.9858521,139.553253 27.5980707,139.409202 28.2411576,139.6047 C28.3594855,139.640713 28.4366559,139.61499 28.5292605,139.548109 C30.4122186,138.231067 32.4906752,137.742321 34.7594855,138.128173 C36.5961415,138.441999 38.1395498,139.311453 39.4,140.679942 C40.4752412,141.852932 41.1286174,143.23171 41.3652733,144.805987 C41.3961415,145.047787 41.4270096,145.289588 41.4578778,145.526244 Z M33.421865,144.620778 C32.933119,144.620778 32.4906752,144.646501 32.0482315,144.615633 C31.3845659,144.564186 30.8237942,144.281228 30.4996785,143.674154 C30.2681672,143.247144 30.0778135,142.799556 29.8926045,142.351967 C29.6765273,141.827208 29.4604502,141.312739 29.1157556,140.860006 C28.8173633,140.474154 28.4623794,140.160327 27.9736334,140.057433 C27.0733119,139.86708 26.3890675,140.335247 25.6945338,140.829138 C25.8385852,140.926887 25.9620579,141.009202 26.0855305,141.096662 C26.5691318,141.446501 26.7440514,141.924958 26.6771704,142.501163 C26.6308682,142.90245 26.4456592,143.252289 26.2861736,143.617562 C26.1215434,143.982835 25.926045,144.342964 25.8385852,144.728816 C25.6379421,145.613704 25.6790997,146.50888 25.8540193,147.393768 C26.1729904,149.029781 26.9652733,150.403414 28.2051447,151.519813 C28.4572347,151.746179 28.7350482,151.941678 29.0180064,152.168044 C29.0231511,152.116597 29.0282958,152.101163 29.0282958,152.096019 C29.007717,152.049716 28.9871383,152.008559 28.9665595,151.967401 C28.318328,150.624636 27.7832797,149.240713 27.4694534,147.774475 C27.4282958,147.568688 27.4180064,147.35261 27.340836,147.162257 C27.0836013,146.570617 26.7646302,146.01499 26.2758842,145.572546 C26.1266881,145.438784 26.1061093,145.305022 26.2090032,145.181549 C26.3170418,145.052932 26.4713826,145.052932 26.6154341,145.202128 C26.785209,145.371903 26.9395498,145.557112 27.0990354,145.737176 C27.1350482,145.778334 27.1659164,145.819491 27.1967846,145.855504 C27.2327974,145.351324 27.2533762,144.867723 27.2996785,144.384122 C27.3305466,144.101163 27.3974277,143.82335 27.4643087,143.550681 C27.4951768,143.411774 27.6340836,143.344893 27.762701,143.375761 C27.8913183,143.40663 27.9684887,143.530102 27.94791,143.669009 C27.9376206,143.720456 27.9221865,143.771903 27.9118971,143.82335 C27.8553055,144.193768 27.7729904,144.559041 27.7421222,144.934604 C27.6598071,145.891517 27.7678457,146.838141 27.9736334,147.774475 C28.3491961,149.461935 29.0282958,151.036212 29.8308682,152.564186 C29.8617363,152.620778 29.9234727,152.672224 29.9800643,152.692803 C30.3401929,152.836855 30.7054662,152.986051 31.0707395,153.114668 C31.3125402,153.196983 31.5646302,153.243286 31.8115756,153.299877 C31.8167203,153.263864 31.8270096,153.24843 31.821865,153.243286 C31.7909968,153.166115 31.7549839,153.0838 31.7189711,153.00663 C31.1993569,151.864507 30.7157556,150.712096 30.3916399,149.497948 C30.2578778,148.993768 30.1138264,148.499877 29.8051447,148.067723 C29.3369775,147.404057 29.0385852,146.6838 29.0128617,145.865794 C29.0025723,145.479942 29.0025723,145.094089 29.007717,144.708237 C29.0128617,144.533318 29.1209003,144.435569 29.2649518,144.440713 C29.4141479,144.440713 29.5067524,144.548752 29.5067524,144.718527 C29.5067524,144.769974 29.5016077,144.826565 29.5016077,144.878012 C29.4913183,145.413061 29.4758842,145.948109 29.5942122,146.478012 C29.6765273,146.838141 29.8205788,147.172546 30.0469453,147.491517 C30.0932476,147.434925 30.1241158,147.393768 30.1601286,147.35261 C30.540836,146.863864 30.9729904,146.426565 31.4565916,146.040713 C31.5594855,145.958398 31.6829582,145.92753 31.7755627,146.020134 C31.837299,146.081871 31.8733119,146.195054 31.8681672,146.282514 C31.8681672,146.34425 31.7858521,146.411131 31.7292605,146.467723 C31.3588424,146.843286 30.9832797,147.218848 30.607717,147.594411 C30.3916399,147.810488 30.2938907,148.021421 30.5151125,148.309524 C30.6180064,148.443286 30.6488746,148.633639 30.7157556,148.79827 C30.7311897,148.839427 30.7466238,148.885729 30.7672026,148.926887 C30.8186495,148.916597 30.8546624,148.916597 30.8906752,148.906308 C31.3382637,148.78798 31.703537,148.546179 31.9401929,148.139749 C32.0019293,148.036855 32.073955,147.95454 32.2025723,147.959684 C32.4083601,147.969974 32.5009646,148.180906 32.3826367,148.381549 C32.1048232,148.839427 31.703537,149.148109 31.1993569,149.323028 C31.1016077,149.359041 30.9987138,149.389909 30.8906752,149.425922 C30.9061093,149.487659 30.9163987,149.539106 30.9318328,149.590552 C31.3022508,150.851003 31.821865,152.054861 32.377492,153.243286 C32.4340836,153.366758 32.5061093,153.413061 32.6347267,153.413061 C33.1749196,153.402771 33.7202572,153.428495 34.2553055,153.377048 C35.5054662,153.253575 36.6424437,152.816276 37.681672,152.106308 C37.7125402,152.085729 37.7434084,152.07544 37.7794212,152.060006 C37.4861736,152.013704 37.2289389,152.003414 36.9768489,151.982835 C36.1588424,151.926244 35.392283,151.694733 34.6874598,151.272868 C33.7099678,150.676083 33.1491961,149.811774 33.0874598,148.664507 C33.0308682,147.599556 33.1646302,146.539749 33.3189711,145.485086 C33.3549839,145.202128 33.3858521,144.924315 33.421865,144.620778 Z M33.977492,149.888945 C34.481672,149.70888 34.9189711,149.451646 35.2482315,149.034925 C35.3202572,148.942321 35.3202572,148.885729 35.2430868,148.793125 C34.8366559,148.268366 34.6308682,147.666437 34.6565916,147.002771 C34.6823151,146.328816 34.970418,145.7629 35.4437299,145.294733 C36.3234727,144.435569 36.5498392,143.380906 36.3286174,142.213061 C36.0971061,140.993768 35.5106109,139.94425 34.7646302,138.966758 C34.5382637,138.673511 34.2861736,138.550038 33.9209003,138.529459 C32.2797428,138.426565 30.7517685,138.77126 29.3369775,139.61499 C29.1826367,139.707594 29.0385852,139.810488 28.9099678,139.892803 C29.1569132,140.129459 29.3884244,140.350681 29.6250804,140.571903 C29.6302251,140.566758 29.6662379,140.520456 29.6971061,140.474154 C30.0057878,140.067723 30.3864952,139.753897 30.8495177,139.548109 C30.9266881,139.512096 31.0604502,139.52753 31.1273312,139.573832 C31.1890675,139.61499 31.2302251,139.748752 31.2096463,139.820778 C31.1890675,139.897948 31.096463,139.975118 31.0192926,140.011131 C30.5768489,140.232353 30.2167203,140.541035 29.9594855,140.968044 C29.9028939,141.060649 29.8977492,141.132675 29.9491961,141.235569 C30.0932476,141.539106 30.2270096,141.847787 30.3607717,142.156469 C30.4327974,142.326244 30.4996785,142.496019 30.5768489,142.686372 C30.6180064,142.634925 30.6488746,142.604057 30.6745981,142.573189 C31.096463,141.955826 31.6263666,141.446501 32.2437299,141.024636 C32.7633441,140.669652 33.3189711,140.386694 33.926045,140.20663 C34.1215434,140.150038 34.2913183,140.273511 34.2758842,140.45872 C34.2604502,140.602771 34.1575563,140.654218 34.0340836,140.70052 C32.7118971,141.142964 31.65209,141.924958 30.9163987,143.123671 C30.8700965,143.195697 30.8186495,143.262578 30.8958199,143.350038 C30.9832797,143.447787 30.9987138,143.617562 31.1890675,143.596983 C31.4514469,143.57126 31.7138264,143.56097 31.9710611,143.530102 C32.6141479,143.458077 33.25209,143.344893 33.8488746,143.06708 C34.044373,142.97962 34.1729904,143.005343 34.2501608,143.15454 C34.3221865,143.298591 34.2655949,143.442642 34.0700965,143.519813 C33.7974277,143.627852 33.5196141,143.73589 33.2366559,143.807916 C32.7942122,143.915954 32.3414791,143.98798 31.8938907,144.07544 C32.073955,144.111453 32.2540193,144.142321 32.4392283,144.142321 C32.7530547,144.142321 33.0720257,144.116597 33.3858521,144.111453 C33.6533762,144.106308 33.8025723,144.229781 33.859164,144.49216 C33.9414791,144.862578 33.8643087,145.227852 33.8128617,145.593125 C33.6688103,146.550038 33.5762058,147.517241 33.5813505,148.484443 C33.5864952,148.983479 33.6945338,149.451646 33.977492,149.888945 Z M38.9472669,143.509524 C38.9318328,143.504379 38.911254,143.504379 38.8958199,143.499234 C38.8855305,143.514668 38.8700965,143.530102 38.8598071,143.545536 C38.4688103,144.193768 37.9543408,144.723671 37.3575563,145.181549 C37.2392283,145.274154 37.1209003,145.361614 36.992283,145.449073 C36.8636656,145.536533 36.7144695,145.51081 36.6321543,145.402771 C36.5446945,145.284443 36.5755627,145.140392 36.7093248,145.037498 C36.7504823,145.00663 36.7967846,144.975761 36.8379421,144.944893 C37.4450161,144.50245 37.9954984,144.008559 38.3916399,143.360327 C38.8546624,142.609202 39.0655949,141.801485 38.8237942,140.921742 C38.792926,140.813704 38.7209003,140.70052 38.6385852,140.618205 C37.9028939,139.908237 37.0488746,139.373189 36.0868167,139.013061 C35.829582,138.915311 35.5620579,138.838141 35.2996785,138.755826 C35.2945338,138.766115 35.2842444,138.781549 35.2790997,138.791839 C35.3099678,138.832996 35.340836,138.874154 35.3665595,138.915311 C36.2051447,140.10888 36.8276527,141.389909 36.8996785,142.881871 C36.9356913,143.653575 36.7762058,144.384122 36.3337621,145.027208 C36.1279743,145.325601 35.8655949,145.582835 35.6340836,145.860649 C35.0012862,146.627208 34.9909968,147.651003 35.6032154,148.432996 C35.7009646,148.556469 35.7935691,148.613061 35.9581994,148.566758 C36.1279743,148.515311 36.3028939,148.499877 36.4726688,148.45872 C37.9543408,148.088302 39.0038585,147.218848 39.5646302,145.778334 C39.9093248,144.893446 39.9967846,143.967401 40.0636656,143.031067 C40.0945338,142.593768 39.9864952,142.22335 39.7138264,141.888945 C39.6572347,141.816919 39.6057878,141.739749 39.5594855,141.662578 C39.5389068,141.63171 39.5337621,141.595697 39.518328,141.564829 C39.5028939,141.580263 39.4874598,141.590552 39.4771704,141.605987 C39.4874598,141.80663 39.5080386,142.012417 39.5131833,142.213061 C39.5543408,143.272868 39.3742765,144.291517 38.9009646,145.24843 C38.6745981,145.706308 38.3813505,146.123028 38.0366559,146.498591 C37.9234727,146.616919 37.7742765,146.632353 37.6662379,146.539749 C37.5581994,146.441999 37.5530547,146.303093 37.6610932,146.169331 C37.6868167,146.138462 37.7073955,146.112739 37.733119,146.081871 C38.1807074,145.582835 38.5151125,145.00663 38.726045,144.373832 C38.8083601,144.085729 38.8700965,143.792482 38.9472669,143.509524 Z M34.3170418,150.321099 C34.3376206,150.351967 34.34791,150.367401 34.3633441,150.382835 C34.8881029,150.912739 35.5363344,151.205987 36.2514469,151.375761 C36.3080386,151.391196 36.3903537,151.360327 36.4418006,151.324315 C36.6270096,151.205987 36.807074,151.077369 36.9768489,150.943607 C37.6302251,150.413704 38.2064309,149.827208 38.4122186,148.968044 C38.4430868,148.834282 38.5871383,148.772546 38.7209003,148.808559 C38.8495177,148.844572 38.9369775,148.973189 38.8855305,149.112096 C38.777492,149.410488 38.6745981,149.71917 38.5151125,149.996983 C38.2012862,150.547466 37.7434084,150.97962 37.2495177,151.370617 C37.2083601,151.40663 37.1620579,151.442642 37.1106109,151.4838 C37.378135,151.540392 37.9697749,151.494089 38.3864952,151.39634 C38.5511254,151.360327 38.6797428,151.288302 38.7980707,151.164829 C40.6398714,149.240713 41.2881029,146.971903 40.7736334,144.368688 C40.7221865,144.106308 40.6347267,143.849073 40.5678457,143.602128 C40.4546624,144.168044 40.3723473,144.739106 40.2231511,145.294733 C39.9401929,146.359684 39.4154341,147.285729 38.5459807,147.985408 C37.7845659,148.602771 36.8996785,148.916597 35.94791,149.081228 C35.8861736,149.091517 35.8141479,149.12753 35.778135,149.173832 C35.4437299,149.652289 34.9961415,149.986694 34.4713826,150.238784 C34.4250804,150.269652 34.3736334,150.295376 34.3170418,150.321099 Z" id="ico_letuce"></path>
        </g>
    </g>
</svg>