<?xml version="1.0" encoding="UTF-8" standalone="no"?>
<svg width="17px" height="17px" viewBox="0 0 17 17" version="1.1" xmlns="http://www.w3.org/2000/svg" xmlns:xlink="http://www.w3.org/1999/xlink">
    <!-- Generator: Sketch 42 (36781) - http://www.bohemiancoding.com/sketch -->
    <title>ico_carrot</title>
    <desc>Created with Sketch.</desc>
    <defs></defs>
    <g id="Page-1" stroke="none" stroke-width="1" fill="none" fill-rule="evenodd">
        <g id="main-categories" transform="translate(-25.000000, -235.000000)" fill-rule="nonzero" fill="#B8B8B8">
            <g id="ico_carrot" transform="translate(25.000000, 235.000000)">
                <path d="M0.0272435897,16.4094156 C0.414102564,14.9025974 1.23685897,13.6055195 1.99967949,12.2863636 C3.16025641,10.2938312 4.40801282,8.36201299 5.85192308,6.56818182 C6.1625,6.18181818 6.51666667,5.83409091 6.84903846,5.46980519 C7.4375,4.82954545 8.14038462,4.76883117 8.90865385,5.0724026 C9.38269231,5.26006494 9.80224359,5.525 10.1945513,5.84512987 C10.2435897,5.88376623 10.2871795,5.9224026 10.3362179,5.95551948 C10.3416667,5.96103896 10.3580128,5.95551948 10.3798077,5.96103896 C10.4942308,5.24902597 10.5432692,4.53701299 10.3144231,3.83051948 C10.238141,3.8525974 10.1836538,3.87467532 10.1237179,3.88571429 C9.8349359,3.95746753 9.61153846,3.8525974 9.49166667,3.5711039 C9.45897436,3.48831169 9.41538462,3.44967532 9.32820513,3.44415584 C9.00673077,3.42207792 8.81602564,3.23993506 8.72884615,2.93084416 C8.70705128,2.84253247 8.66346154,2.80941558 8.57628205,2.78733766 C8.04775641,2.67142857 7.8625,2.22435065 8.14583333,1.76071429 C8.19487179,1.68344156 8.21121795,1.62824675 8.16762821,1.53441558 C7.85705128,0.938311688 8.18397436,0.309090909 8.84326923,0.21525974 C8.88141026,0.20974026 8.91955128,0.198701299 8.95224359,0.176623377 C9.2900641,-0.0551948052 9.80769231,0.00551948052 10.1346154,0.275974026 C10.1891026,0.325649351 10.2926282,0.342207792 10.3689103,0.336688312 C10.7448718,0.287012987 11.0826923,0.507792208 11.1644231,0.883116883 C11.1916667,1.00454545 11.2407051,1.05974026 11.3442308,1.10941558 C11.7801282,1.33571429 11.9599359,1.90974026 11.7201923,2.32922078 C11.6548077,2.44512987 11.6548077,2.52792208 11.7038462,2.63831169 C11.7419872,2.7211039 11.7692308,2.81493506 11.7910256,2.87564935 C12.0416667,2.7487013 12.286859,2.62175325 12.5592949,2.47824675 C12.5647436,2.44512987 12.575641,2.36233766 12.5919872,2.27954545 C12.6846154,1.90974026 12.9461538,1.6724026 13.3221154,1.62824675 C13.4310897,1.61720779 13.4692308,1.57857143 13.4910256,1.4737013 C13.6,0.905194805 14.1394231,0.618181818 14.6625,0.855519481 C14.7823718,0.910714286 14.8641026,0.888636364 14.9785256,0.85 C15.1474359,0.789285714 15.3272436,0.73961039 15.5070513,0.734090909 C15.9974359,0.723051948 16.2644231,1.07077922 16.1391026,1.55097403 C16.0900641,1.73863636 15.9919872,1.90974026 15.9157051,2.09188312 C16.4932692,2.72662338 16.3189103,3.33928571 15.5833333,3.46623377 C15.6487179,4.29967532 15.5233974,4.45422078 14.7333333,4.49285714 C14.700641,4.85162338 14.5753205,5.16623377 14.275641,5.39805195 C14.2810897,5.41461039 14.2919872,5.43116883 14.2974359,5.44772727 C14.3737179,5.43668831 14.4608974,5.44220779 14.5208333,5.40357143 C14.9730769,5.10551948 15.5669872,5.23798701 15.8394231,5.71818182 C15.899359,5.82305195 15.9592949,5.87272727 16.0737179,5.88928571 C16.4769231,5.95551948 16.6894231,6.24805195 16.6567308,6.66753247 C16.6512821,6.71720779 16.6730769,6.78896104 16.7057692,6.8275974 C17.0708333,7.2525974 17.0435897,7.72727273 16.6349359,8.09707792 C16.5967949,8.13019481 16.575,8.19642857 16.5641026,8.25162338 C16.5314103,8.38409091 16.5205128,8.5275974 16.4660256,8.65454545 C16.2862179,9.08506494 15.8830128,9.19545455 15.5070513,8.925 C15.4580128,8.89188312 15.4089744,8.85324675 15.3599359,8.81461039 C15.1419872,9.05194805 14.913141,9.27824675 14.5753205,9.16233766 C14.1884615,9.02987013 14.1067308,8.67662338 14.0576923,8.35649351 C13.8996795,8.25162338 13.7144231,8.19090909 13.6326923,8.06396104 C13.5509615,7.94253247 13.5673077,7.74935065 13.5400641,7.57824675 C12.9025641,7.41818182 12.9516026,7.06493506 13.1532051,6.60681818 C12.7064103,6.18733766 11.7474359,6.25909091 11.0009615,6.63441558 C11.0391026,6.68409091 11.0717949,6.72824675 11.1099359,6.77792208 C11.5621795,7.34642857 11.9490385,7.95357143 12.1125,8.68214286 C12.2051282,9.09058442 12.1615385,9.47142857 11.8727564,9.78051948 C11.5022436,10.1834416 11.1262821,10.5918831 10.7121795,10.9451299 C9.38814103,12.0655844 7.94967949,13.0149351 6.48942308,13.9366883 C4.98012821,14.886039 3.45448718,15.7967532 1.83076923,16.5363636 C1.47660256,16.6964286 1.10608974,16.8344156 0.730128205,16.9282468 C0.381410256,17.0165584 0.136217949,17.0551948 0.0272435897,16.5584416 C0.0272435897,16.5032468 0.0272435897,16.4535714 0.0272435897,16.4094156 Z M4.68044872,14.4279221 C5.54134615,13.8925325 6.39134615,13.3626623 7.23589744,12.8327922 C7.21410256,12.7775974 7.20320513,12.75 7.18685897,12.7279221 C7.06153846,12.5237013 6.93621795,12.325 6.81089744,12.1152597 C6.72916667,11.9827922 6.75641026,11.8392857 6.86538462,11.7564935 C6.97980769,11.6737013 7.13782051,11.6957792 7.23044872,11.8172078 C7.27948718,11.8779221 7.32307692,11.9441558 7.36121795,12.0103896 C7.46474359,12.175974 7.56826923,12.3470779 7.68814103,12.5347403 C8.44551282,11.9883117 9.19198718,11.4529221 9.96570513,10.8954545 C9.60064103,10.3987013 9.26282051,9.92954545 8.91955128,9.46590909 C8.81057692,9.31688312 8.81602564,9.16233766 8.94134615,9.06850649 C9.06121795,8.97467532 9.20288462,8.99675325 9.31730769,9.13474026 C9.4099359,9.23961039 9.49711538,9.35 9.57339744,9.46038961 C9.82948718,9.81915584 10.0855769,10.1834416 10.3471154,10.5642857 C10.7721154,10.2 11.224359,9.85227273 11.5294872,9.36655844 C11.6057692,9.24512987 11.649359,9.05194805 11.6166667,8.90844156 C11.5512821,8.59935065 11.4586538,8.29025974 11.3224359,8.00876623 C11.0391026,7.4237013 10.6141026,6.94902597 10.1509615,6.50194805 C9.69326923,6.06590909 9.1974359,5.69058442 8.58717949,5.49188312 C8.08589744,5.3262987 7.62820513,5.38149351 7.25224359,5.78441558 C7.0125,6.03831169 6.77275641,6.29220779 6.53301282,6.5461039 C6.51121795,6.56818182 6.50032051,6.6012987 6.48942308,6.61785714 C6.84358974,6.87727273 7.18685897,7.12564935 7.53012821,7.37954545 C7.69358974,7.50097403 7.72083333,7.65551948 7.62275641,7.78246753 C7.52467949,7.90941558 7.37211538,7.91493506 7.21410256,7.79350649 C7.05064103,7.67207792 6.89262821,7.53961039 6.72371795,7.4237013 C6.53301282,7.28571429 6.33141026,7.16428571 6.11346154,7.01525974 C5.56314103,7.77694805 5.02371795,8.51655844 4.47884615,9.26720779 C4.64775641,9.37207792 4.80032051,9.45487013 4.93108974,9.55974026 C5.36698718,9.90746753 5.80288462,10.2551948 6.23333333,10.6194805 C6.36955128,10.7353896 6.36955128,10.8899351 6.26602564,11.0058442 C6.15705128,11.1272727 6.0099359,11.1217532 5.87371795,10.9892857 C5.81378205,10.9340909 5.75384615,10.8733766 5.69391026,10.8181818 C5.24166667,10.3987013 4.75128205,10.0344156 4.20641026,9.72532468 C4.16826923,9.775 4.13557692,9.81915584 4.10833333,9.86331169 C3.34551282,11.1107143 2.57179487,12.3525974 1.83621795,13.6165584 C1.37307692,14.4058442 0.948076923,15.2227273 0.642948718,16.0948052 C0.604807692,16.1996753 0.577564103,16.3100649 0.544871795,16.4204545 C0.555769231,16.4314935 0.572115385,16.4425325 0.583012821,16.4535714 C1.85801282,16.000974 3.02948718,15.3331169 4.24455128,14.6542208 C4.02660256,14.3616883 3.83044872,14.0746753 3.60705128,13.8152597 C3.42179487,13.6 3.20384615,13.4233766 2.99679487,13.2246753 C2.88237179,13.1142857 2.86602564,12.9652597 2.96410256,12.8493506 C3.05673077,12.7444805 3.19839744,12.7279221 3.31826923,12.8162338 C3.37275641,12.8548701 3.42179487,12.899026 3.47083333,12.9431818 C3.95032051,13.3737013 4.34262821,13.8594156 4.68044872,14.4279221 Z M11.8782051,5.10551948 C12.0580128,5.05032468 12.2378205,4.98409091 12.4230769,4.94545455 C12.7717949,4.8737013 13.1150641,4.80746753 13.4474359,5.05584416 C13.6599359,5.21038961 13.9160256,5.09448052 14.1176282,4.81850649 C14.2919872,4.58116883 14.2865385,4.36590909 14.1067308,4.16720779 C14.0849359,4.14512987 14.0576923,4.11753247 14.0413462,4.09545455 C13.9323718,3.95746753 13.9378205,3.80844156 14.0413462,3.70357143 C14.1448718,3.60974026 14.2865385,3.61525974 14.4173077,3.72012987 C14.5371795,3.81396104 14.6570513,3.91883117 14.7987179,3.97954545 C14.875,4.01266234 15.0221154,3.98506494 15.0766026,3.92435065 C15.1310897,3.86363636 15.1474359,3.72012987 15.1147436,3.64285714 C15.0602564,3.51590909 14.9567308,3.40551948 14.8641026,3.29512987 C14.7442308,3.15162338 14.7115385,3.01915584 14.7987179,2.90876623 C14.9022436,2.7762987 15.0330128,2.79285714 15.1746795,2.85357143 C15.2782051,2.89772727 15.3871795,2.95844156 15.5016026,2.96396104 C15.5778846,2.96948052 15.6977564,2.91428571 15.7304487,2.85357143 C15.763141,2.79285714 15.7413462,2.66038961 15.6923077,2.59967532 C15.6269231,2.51136364 15.5179487,2.45064935 15.4198718,2.38993506 C15.1746795,2.24090909 15.1583333,2.06980519 15.3708333,1.8711039 C15.474359,1.77175325 15.5778846,1.66688312 15.6487179,1.54545455 C15.686859,1.47922078 15.6814103,1.34675325 15.6378205,1.29155844 C15.5942308,1.23636364 15.4689103,1.20876623 15.3926282,1.23084416 C15.2727564,1.26396104 15.1637821,1.33571429 15.0602564,1.40746753 C14.8150641,1.57857143 14.7769231,1.58409091 14.5480769,1.37987013 C14.3846154,1.23084416 14.2483974,1.23636364 14.0849359,1.39090909 C13.9323718,1.53441558 13.9214744,1.65584416 14.0413462,1.83246753 C14.0740385,1.88214286 14.1339744,1.93733766 14.1285256,1.98701299 C14.1230769,2.08084416 14.1067308,2.19675325 14.0522436,2.25194805 C13.9977564,2.30162338 13.8833333,2.30714286 13.7961538,2.30162338 C13.7471154,2.2961039 13.6926282,2.24090909 13.6490385,2.20227273 C13.4855769,2.07532468 13.3548077,2.08084416 13.2076923,2.21883117 C13.0169872,2.39545455 13.0060897,2.5224026 13.1695513,2.73214286 C13.2076923,2.78181818 13.2621795,2.85357143 13.2567308,2.90324675 C13.2458333,2.99707792 13.2185897,3.12402597 13.1477564,3.1737013 C13.0878205,3.21785714 12.9679487,3.19025974 12.8753205,3.17922078 C12.8426282,3.1737013 12.8153846,3.13506494 12.788141,3.10746753 C12.6573718,2.99155844 12.5538462,2.99155844 12.363141,3.13506494 C12.2105769,3.24545455 11.9817308,3.36136364 12.0852564,3.58766234 C12.1942308,3.83051948 12.1615385,4.05681818 12.1125,4.28863636 C12.0525641,4.57012987 11.9544872,4.83506494 11.8782051,5.10551948 Z M10.9791667,5.39253247 C11.2842949,4.90681818 11.4423077,4.38798701 11.4314103,3.81948052 C11.4205128,3.36688312 11.2951923,2.94188312 11.1044872,2.53344156 C11.0445513,2.40097403 11.0391026,2.28506494 11.1535256,2.18571429 C11.2298077,2.11948052 11.3605769,2.09188312 11.3333333,1.9538961 C11.3115385,1.85454545 11.2733974,1.74967532 11.224359,1.65584416 C11.1753205,1.55097403 11.0935897,1.5012987 10.9682692,1.54545455 C10.8538462,1.58961039 10.7339744,1.57305195 10.6576923,1.45714286 C10.586859,1.35779221 10.586859,1.2474026 10.6576923,1.14805195 C10.7394231,1.03214286 10.6958333,0.95487013 10.5977564,0.883116883 C10.4942308,0.805844156 10.4125,0.805844156 10.3307692,0.916233766 C10.2599359,1.0211039 10.1564103,1.0487013 10.0365385,1.01558442 C9.91666667,0.976948052 9.86762821,0.888636364 9.85128205,0.767207792 C9.84583333,0.717532468 9.80224359,0.645779221 9.76410256,0.63474026 C9.64423077,0.590584416 9.51891026,0.568506494 9.39358974,0.551948052 C9.35544872,0.546428571 9.29551282,0.579545455 9.27916667,0.612662338 C9.1974359,0.767207792 9.07211538,0.789285714 8.91410256,0.761688312 C8.83782051,0.750649351 8.72884615,0.767207792 8.67435897,0.816883117 C8.46730769,1.01006494 8.51634615,1.28051948 8.76153846,1.42402597 C8.83237179,1.46818182 8.91410256,1.57305195 8.91410256,1.65032468 C8.91410256,1.73311688 8.82692308,1.82694805 8.76153846,1.8987013 C8.71794872,1.94837662 8.63076923,1.9538961 8.59807692,2.00357143 C8.5599359,2.06428571 8.52179487,2.16363636 8.54358974,2.21883117 C8.56538462,2.27402597 8.66346154,2.30714286 8.73429487,2.32922078 C8.7724359,2.34025974 8.83237179,2.31266234 8.87596154,2.29058442 C9.00128205,2.23538961 9.11570513,2.23538961 9.20833333,2.34025974 C9.31185897,2.45064935 9.30096154,2.57207792 9.22467949,2.69350649 C9.16474359,2.79285714 9.1974359,2.85357143 9.27916667,2.91980519 C9.39358974,3.0025974 9.46987179,2.975 9.55160256,2.85909091 C9.63878205,2.73214286 9.79134615,2.71006494 9.90032051,2.7762987 C10.0201923,2.84805195 10.0528846,2.98051948 9.99294872,3.12954545 C9.97660256,3.1737013 9.93846154,3.21785714 9.93301282,3.26753247 C9.9275641,3.31168831 9.94391026,3.37792208 9.96570513,3.39448052 C10.0038462,3.41103896 10.0637821,3.39448052 10.1073718,3.37792208 C10.1400641,3.36136364 10.1455128,3.30616883 10.1782051,3.28961039 C10.2599359,3.23441558 10.3525641,3.13506494 10.4342949,3.1461039 C10.5214744,3.15714286 10.6358974,3.25097403 10.6740385,3.33928571 C10.875641,3.76980519 10.9737179,4.2224026 10.9846154,4.69707792 C10.9846154,4.91785714 10.9791667,5.15519481 10.9791667,5.39253247 Z M12.7391026,5.84512987 C12.788141,5.86168831 12.8426282,5.86720779 12.8916667,5.88928571 C13.1423077,6.01623377 13.3983974,6.13214286 13.6326923,6.28116883 C13.8233974,6.4025974 13.8233974,6.53506494 13.6926282,6.72272727 C13.6272436,6.81655844 13.5727564,6.91038961 13.4801282,7.0538961 C13.6544872,7.0538961 13.774359,7.05941558 13.8887821,7.0538961 C14.0141026,7.04285714 14.1339744,7.04285714 14.2102564,7.16980519 C14.2865385,7.29675325 14.2375,7.41266234 14.1721154,7.52857143 C14.1285256,7.60584416 14.0958333,7.68863636 14.0467949,7.79350649 C14.1339744,7.78246753 14.1830128,7.77142857 14.2320513,7.76590909 C14.5208333,7.72175325 14.6407051,7.85422078 14.5862179,8.14675325 C14.5698718,8.25714286 14.5535256,8.37305195 14.5807692,8.47792208 C14.5971154,8.54967532 14.6733974,8.63798701 14.7442308,8.65454545 C14.7987179,8.66558442 14.9076923,8.60487013 14.9403846,8.54415584 C15.0003205,8.44480519 15.0330128,8.31785714 15.0657051,8.20194805 C15.1038462,8.05844156 15.1692308,7.94805195 15.3272436,7.94805195 C15.4852564,7.94253247 15.5560897,8.05292208 15.6051282,8.19090909 C15.6378205,8.27922078 15.6596154,8.37857143 15.7141026,8.44480519 C15.7576923,8.49448052 15.8557692,8.53863636 15.9211538,8.52207792 C15.975641,8.51103896 16.0410256,8.42272727 16.0519231,8.36201299 C16.0682692,8.2737013 16.0464744,8.17435065 16.0301282,8.08051948 C15.975641,7.8211039 16.0246795,7.73831169 16.2862179,7.68311688 C16.4551282,7.65 16.4387821,7.51753247 16.4442308,7.3961039 C16.4442308,7.28019481 16.4278846,7.17532468 16.2807692,7.14772727 C15.9974359,7.09805195 15.9266026,6.89935065 16.111859,6.67305195 C16.1935897,6.57922078 16.1772436,6.51298701 16.1009615,6.43019481 C16.0246795,6.3474026 15.9483974,6.32532468 15.8612179,6.40811688 C15.7576923,6.50746753 15.6378205,6.53506494 15.5179487,6.45227273 C15.3926282,6.36396104 15.4035256,6.24253247 15.4307692,6.11006494 C15.4416667,6.04383117 15.4253205,5.93344156 15.3817308,5.90584416 C15.2727564,5.82857143 15.1419872,5.77337662 15.0112179,5.74025974 C14.9621795,5.72922078 14.8695513,5.77337662 14.8314103,5.82305195 C14.6570513,6.03831169 14.6461538,6.04935065 14.3737179,5.9775974 C14.3028846,5.96103896 14.2375,5.93896104 14.1666667,5.9224026 C13.6980769,5.82305195 13.2240385,5.76785714 12.7391026,5.84512987 Z" id="Shape"></path>
                <path d="M10.9737179,2.73766234 C10.9083333,2.80941558 10.8538462,2.90324675 10.7721154,2.9474026 C10.6685897,3.0025974 10.5541667,2.96396104 10.4778846,2.86461039 C10.4070513,2.76525974 10.3471154,2.66038961 10.2762821,2.56103896 C9.95480769,2.11396104 9.55705128,1.76071429 9.07211538,1.51233766 C9.02852564,1.49025974 8.9849359,1.46818182 8.94134615,1.4461039 C8.79423077,1.36331169 8.73974359,1.21428571 8.81057692,1.08181818 C8.87596154,0.95487013 9.01762821,0.905194805 9.16474359,0.976948052 C9.55705128,1.15909091 9.92211538,1.39642857 10.2217949,1.71655844 C10.4615385,1.97045455 10.663141,2.25746753 10.875641,2.53344156 C10.9137821,2.57207792 10.9301282,2.64383117 10.9737179,2.73766234 Z" id="Shape"></path>
                <path d="M14.1012821,6.02727273 C14.1503205,6.04383117 14.1939103,6.05487013 14.2429487,6.07694805 C14.8804487,6.35844156 15.4035256,6.77792208 15.7685897,7.38506494 C15.7958333,7.42922078 15.8176282,7.47337662 15.8394231,7.51753247 C15.9102564,7.66655844 15.8666667,7.81006494 15.7413462,7.8762987 C15.6160256,7.94253247 15.4798077,7.89285714 15.3871795,7.76590909 C15.1964744,7.51753247 15.0221154,7.24155844 14.7932692,7.03733766 C14.5698718,6.83863636 14.2865385,6.71168831 14.025,6.55714286 C13.8996795,6.48538961 13.8125,6.39155844 13.8615385,6.24805195 C13.8942308,6.15422078 13.9923077,6.08246753 14.063141,6.00519481 C14.0740385,6.00519481 14.0903846,6.01623377 14.1012821,6.02727273 Z" id="Shape"></path>
                <path d="M12.7717949,4.46525974 C12.6955128,4.40454545 12.5974359,4.36038961 12.5647436,4.28863636 C12.5320513,4.21688312 12.5647436,4.11201299 12.575641,4.0237013 C12.5810897,3.9961039 12.6192308,3.97402597 12.6410256,3.95194805 C13.3330128,3.36688312 13.9378205,2.69350649 14.5044872,1.98701299 C14.5807692,1.89318182 14.6733974,1.82142857 14.7878205,1.86558442 C14.8641026,1.8987013 14.9512821,1.97045455 14.9785256,2.04772727 C15.0003205,2.11396104 14.9730769,2.22987013 14.9294872,2.29058442 C14.3355769,3.03571429 13.7035256,3.74220779 12.9733974,4.34935065 C12.924359,4.39350649 12.8535256,4.41558442 12.7717949,4.46525974 Z" id="Shape"></path>
            </g>
        </g>
    </g>
</svg>