<?xml version="1.0" encoding="UTF-8"?>
<svg width="50px" height="52px" viewBox="0 0 50 52" version="1.1" xmlns="http://www.w3.org/2000/svg" xmlns:xlink="http://www.w3.org/1999/xlink">
    <!-- Generator: Sketch 45.1 (43504) - http://www.bohemiancoding.com/sketch -->
    <title>ico_pdf</title>
    <desc>Created with Sketch.</desc>
    <defs>
        <path d="M13.1071585,4.39286119 C13.437516,4.72321872 13.7143021,5.3839338 13.7143021,5.85714865 L13.7143021,16.1428752 C13.7143021,16.61609 13.330373,17.0000191 12.8571582,17.0000191 L0.857143879,17.0000191 C0.383929029,17.0000191 0,16.61609 0,16.1428752 L0,1.85714388 C0,1.38392903 0.383929029,1 0.857143879,1 L8.85715342,1 C9.33036827,1 9.99108334,1.27678604 10.3214409,1.60714358 L13.1071585,4.39286119 Z M9.14286804,2.21428716 L9.14286804,5.57143402 L12.5000149,5.57143402 C12.4464434,5.41964813 12.3660862,5.26786223 12.3035861,5.20536216 L9.50893991,2.41071597 C9.44643983,2.34821589 9.29465394,2.26785865 9.14286804,2.21428716 Z M12.5714436,15.8571606 L12.5714436,6.71429253 L8.85715342,6.71429253 C8.38393857,6.71429253 8.00000954,6.3303635 8.00000954,5.85714865 L8.00000954,2.14285851 L1.14285851,2.14285851 L1.14285851,15.8571606 L12.5714436,15.8571606 Z M7.98215237,10.5625114 C8.20536692,10.741083 8.45536722,10.9017975 8.73215327,11.062512 C9.10715371,11.0178691 9.45536841,11.0000119 9.77679737,11.0000119 C10.3750124,11.0000119 11.1339418,11.0714406 11.3571564,11.4375124 C11.4196565,11.5267983 11.473228,11.6875127 11.3750136,11.9017987 C11.366085,11.9107273 11.3571564,11.9285845 11.3482278,11.937513 L11.3482278,11.9464416 C11.3214421,12.1071561 11.1875133,12.2857277 10.7142985,12.2857277 C10.1428692,12.2857277 9.27679677,12.0267989 8.52679588,11.6339412 C7.28572297,11.76787 5.98214999,12.044656 5.02679171,12.3750136 C4.10714775,13.946444 3.40178977,14.7143021 2.86607485,14.7143021 C2.77678902,14.7143021 2.69643179,14.6964449 2.61607455,14.651802 L2.40178858,14.544659 C2.37500283,14.5357304 2.36607425,14.5178733 2.34821709,14.5000161 C2.30357417,14.4553732 2.26785985,14.3571588 2.29464559,14.1785871 C2.38393141,13.7678724 2.86607485,13.0803715 3.97321902,12.5000137 C4.04464768,12.4553708 4.1339335,12.4821565 4.17857641,12.5535852 C4.18750499,12.5625138 4.19643357,12.5803709 4.19643357,12.5892995 C4.47321962,12.1339418 4.79464857,11.553584 5.15179186,10.8303689 C5.55357805,10.0267965 5.86607842,9.24108125 6.08036439,8.49108036 C5.79464976,7.51786491 5.70536394,6.51786372 5.86607842,5.9285773 C5.9285785,5.70536275 6.06250723,5.57143402 6.24107887,5.57143402 L6.43750767,5.57143402 C6.57143641,5.57143402 6.67857939,5.61607693 6.75000805,5.70536275 C6.85715103,5.8303629 6.88393678,6.02679171 6.83036529,6.31250633 C6.8214367,6.33929208 6.81250812,6.36607783 6.79465096,6.38393499 C6.80357954,6.41072074 6.80357954,6.4285779 6.80357954,6.45536365 L6.80357954,6.72322111 C6.79465096,7.28572178 6.78572237,7.8214367 6.67857939,8.43750887 C6.99107976,9.37500998 7.45536603,10.1339395 7.98215237,10.5625114 Z M2.8392891,14.2321586 C3.10714656,14.1071585 3.49107559,13.7232295 4.06250484,12.8214427 C3.39286119,13.3393004 2.97321783,13.9285868 2.8392891,14.2321586 Z M6.39286476,6.01786312 C6.30357894,6.26786342 6.30357894,6.69643536 6.3750076,7.19643596 C6.40179335,7.05357864 6.41965051,6.91964991 6.43750767,6.80357835 C6.45536484,6.65179245 6.48215058,6.5267923 6.50000775,6.41964932 C6.50893633,6.39286357 6.51786491,6.37500641 6.53572208,6.34822066 C6.52679349,6.33929208 6.52679349,6.32143492 6.51786491,6.30357775 C6.50893633,6.14286327 6.45536484,6.04464887 6.40179335,5.9821488 C6.40179335,6.00000596 6.39286476,6.00893454 6.39286476,6.01786312 Z M5.28572059,11.9196559 C6.07143581,11.6071555 6.94643685,11.3571552 7.8214379,11.1964407 C7.73215207,11.1250121 7.64286625,11.062512 7.56250902,10.9910833 C7.12500849,10.6071543 6.73215088,10.0714394 6.42857909,9.41965289 C6.25893603,9.9642964 6.00893573,10.5446542 5.68750678,11.1785836 C5.55357805,11.4285839 5.41964932,11.6785842 5.28572059,11.9196559 Z M11.0535846,11.7767986 C11.0089417,11.7321557 10.7767986,11.5625126 9.80358312,11.5625126 C10.2410836,11.7232271 10.6428698,11.8125129 10.9107273,11.8125129 C10.9910845,11.8125129 11.0357274,11.8125129 11.0714418,11.8035843 C11.0714418,11.7946557 11.0625132,11.7857271 11.0535846,11.7767986 Z" id="path-1"></path>
        <filter x="-204.2%" y="-162.5%" width="508.3%" height="450.0%" filterUnits="objectBoundingBox" id="filter-2">
            <feOffset dx="0" dy="2" in="SourceAlpha" result="shadowOffsetOuter1"></feOffset>
            <feGaussianBlur stdDeviation="9" in="shadowOffsetOuter1" result="shadowBlurOuter1"></feGaussianBlur>
            <feColorMatrix values="0 0 0 0 0   0 0 0 0 0   0 0 0 0 0  0 0 0 0.1 0" type="matrix" in="shadowBlurOuter1"></feColorMatrix>
        </filter>
    </defs>
    <g id="Page-1" stroke="none" stroke-width="1" fill="none" fill-rule="evenodd">
        <g id="shopping-cart---receipt" transform="translate(-1167.000000, -281.000000)">
            <g id="Group" transform="translate(1185.000000, 296.000000)">
                <g id="ico_pdf">
                    <use fill="black" fill-opacity="1" filter="url(#filter-2)" xlink:href="#path-1"></use>
                    <use fill="#EA573D" fill-rule="evenodd" xlink:href="#path-1"></use>
                </g>
            </g>
        </g>
    </g>
</svg>